<?xml version="1.0"?>
<svg width="324.143" height="324.143" xmlns="http://www.w3.org/2000/svg" xmlns:svg="http://www.w3.org/2000/svg" xmlns:xlink="http://www.w3.org/1999/xlink" version="1.1" xml:space="preserve">
 <g class="layer">
  <title>Layer 1</title>
  <use id="svg_9" transform="matrix(0.255513 0 0 0.245311 489.152 298.632)" x="-1655.74" xlink:href="#svg_8" y="-965.97"/>
  <use id="svg_12" transform="matrix(0.403168 0 0 0.404054 0.066449 0.212161)" x="4.96" xlink:href="#svg_11" y="-2.47"/>
  <rect fill="#FF0000" height="0" id="svg_14" stroke="#000000" width="0" x="-5.93" y="157.36"/>
 </g>
 <defs>
  <symbol height="800px" id="svg_8" viewBox="0 0 24 24" width="800px" xmlns="http://www.w3.org/2000/svg">
   <g id="svg_1">
    <path d="m0,0l24,0l0,24l-24,0l0,-24z" fill="none" id="svg_2"/>
    <path d="m9,4l5.45,0a1,1 0 0 1 0.84,0.47l3.46,5.53l4.41,0a0.5,0.5 0 0 1 0.44,0.74l-3.94,7.22a4.99,4.99 0 0 1 -4.66,-1.96a4.99,4.99 0 0 1 -4,2a4.99,4.99 0 0 1 -4,-2a4.99,4.99 0 0 1 -4.55,1.97l-1.24,-6.79a1,1 0 0 1 0.99,-1.18l0.8,0l0,-5a1,1 0 0 1 1,-1l1,0l0,-3l4,0l0,3zm-4,6l11.39,0l-2.5,-4l-8.89,0l0,4zm-2,10a5.98,5.98 0 0 0 4,-1.53a5.98,5.98 0 0 0 4,1.53a5.98,5.98 0 0 0 4,-1.53a5.98,5.98 0 0 0 4,1.53l2,0l0,2l-2,0a7.96,7.96 0 0 1 -4,-1.07a7.96,7.96 0 0 1 -4,1.07a7.96,7.96 0 0 1 -4,-1.07a7.96,7.96 0 0 1 -4,1.07l-2,0l0,-2l2,0z" id="svg_3"/>
   </g>
  </symbol>
  <symbol height="800px" id="svg_11" viewBox="0 0 324.143 324.143" width="800px" xmlns="http://www.w3.org/2000/svg" xmlns:xlink="http://www.w3.org/1999/xlink">
   <g id="svg_4">
    <g id="svg_5">
     <g id="svg_6">
      <path d="m162.07,0c-88.91,0 -161.24,72.33 -161.24,161.24c0,37.08 12.79,73.01 36.1,101.68c-6.65,16.75 -17.79,31.24 -32.4,42.09c-2.24,1.66 -3.37,4.42 -2.94,7.17c0.43,2.76 2.35,5.05 4.98,5.95c11.69,3.99 23.86,6.01 36.19,6.01c19.57,0 38.69,-5.09 55.57,-14.76c20.15,8.7 41.58,13.1 63.74,13.1c88.91,0 161.24,-72.33 161.24,-161.24s-72.33,-161.24 -161.24,-161.24zm0,307.48c-21.32,0 -41.88,-4.49 -61.11,-13.35c-2.29,-1.06 -4.96,-0.89 -7.1,0.44c-15.31,9.53 -32.99,14.57 -51.11,14.57c-6.05,0 -12.06,-0.56 -17.98,-1.68c12.52,-12.12 22.02,-26.95 27.79,-43.55c0.88,-2.53 0.35,-5.33 -1.4,-7.35c-22.78,-26.49 -35.33,-60.34 -35.33,-95.32c0,-80.64 65.6,-146.24 146.24,-146.24s146.24,65.6 146.24,146.24c0,80.64 -65.6,146.24 -146.24,146.24z" id="svg_7"/>
     </g>
    </g>
   </g>
  </symbol>
 </defs>
</svg>